<?xml version="1.0" standalone="no"?>
<!DOCTYPE svg PUBLIC "-//W3C//DTD SVG 20010904//EN"
 "http://www.w3.org/TR/2001/REC-SVG-20010904/DTD/svg10.dtd">
<svg version="1.0" xmlns="http://www.w3.org/2000/svg"
 width="699.000000pt" height="699.000000pt" viewBox="0 0 699.000000 699.000000"
 preserveAspectRatio="xMidYMid meet">
<metadata>
Created by potrace 1.11, written by Peter Selinger 2001-2013
</metadata>
<g transform="translate(0.000000,699.000000) scale(0.100000,-0.100000)"
fill="#000000" stroke="none">
<path d="M3140 6129 c-321 -28 -666 -105 -964 -215 -66 -25 -206 -88 -311
-139 -320 -158 -526 -299 -797 -547 l-84 -76 -59 14 c-239 56 -476 -59 -582
-282 -33 -70 -37 -86 -41 -184 -3 -81 0 -120 13 -165 48 -166 161 -288 321
-347 84 -30 254 -30 338 0 164 60 290 201 326 364 8 34 11 94 8 156 -4 84 -10
109 -35 164 l-31 66 67 65 c294 288 763 551 1212 682 150 44 369 88 544 111
163 22 598 25 760 6 709 -84 1303 -347 1795 -794 l74 -66 -27 -59 c-14 -32
-31 -91 -38 -130 l-12 -71 -86 -32 c-47 -18 -167 -72 -266 -120 -662 -325
-1207 -881 -1567 -1600 l-67 -135 -1 696 0 696 64 32 c317 156 382 583 126
824 -80 76 -148 112 -256 134 -139 28 -291 -7 -407 -96 -189 -146 -250 -409
-145 -631 42 -87 140 -185 231 -230 l67 -33 0 -1201 0 -1201 -63 -29 c-41 -19
-85 -52 -128 -95 -105 -105 -149 -212 -149 -361 0 -150 51 -271 156 -370 200
-186 502 -187 696 -2 114 108 161 217 161 372 0 208 -110 376 -310 474 -6 3
50 272 81 389 100 381 285 770 523 1101 241 334 575 648 909 853 126 77 348
187 456 227 l75 27 59 -58 c62 -61 157 -114 234 -132 68 -16 199 -13 261 5 88
26 164 72 227 138 97 101 142 212 142 350 0 230 -132 414 -347 487 -80 27
-228 30 -303 7 l-45 -14 -95 86 c-146 133 -259 222 -414 324 -489 324 -1029
509 -1656 565 -132 12 -500 12 -640 0z"/>
</g>
</svg>
